<svg width="186" height="27" viewBox="0 0 186 27" fill="none" xmlns="http://www.w3.org/2000/svg">
<path fill-rule="evenodd" clip-rule="evenodd" d="M8 27C3.58172 27 0 23.4183 0 19C0 14.5817 3.58172 11 8 11C9.36405 11 10.6484 11.3414 11.7722 11.9434C13.3868 7.87593 17.3575 5 22 5C23.8433 5 25.5808 5.45342 27.1069 6.2548C29.5033 2.4943 33.7104 0 38.5 0C45.3229 0 50.9636 5.06153 51.8722 11.6346C52.833 11.226 53.8901 11 55 11C59.4183 11 63 14.5817 63 19C63 23.4183 59.4183 27 55 27H38.5H22H8Z" fill="#FF5732"/>
<path fill-rule="evenodd" clip-rule="evenodd" d="M24 11.9912C23.9988 11.9941 23.9976 11.9971 23.9963 12H24V11.9912ZM23.5651 13.197C23.1977 14.3999 23 15.6769 23 17C23 19.566 23.7434 21.9583 25.0266 23.9734L26.482 22.518C25.5396 20.896 25 19.011 25 17C25 15.9792 25.139 14.9909 25.3992 14.053L23.5651 13.197ZM45.518 22.518C46.4604 20.896 47 19.011 47 17C47 15.9792 46.861 14.9909 46.6008 14.053L48.4349 13.1971C48.8023 14.3999 49 15.6769 49 17C49 19.566 48.2566 21.9583 46.9734 23.9734L45.518 22.518ZM48.0037 12H48V11.9912C48.0012 11.9942 48.0025 11.9971 48.0037 12Z" fill="white"/>
<path fill-rule="evenodd" clip-rule="evenodd" d="M41.6569 22.6569C43.1046 21.2091 44 19.2091 44 17C44 12.5817 40.4183 9 36 9C31.5817 9 28 12.5817 28 17C28 19.2091 28.8954 21.2091 30.3431 22.6569L28.9289 24.0711C27.1193 22.2614 26 19.7614 26 17C26 11.4772 30.4772 7 36 7C41.5228 7 46 11.4772 46 17C46 19.7614 44.8807 22.2614 43.0711 24.0711L41.6569 22.6569Z" fill="white"/>
<path d="M81.886 21.264C80.6687 21.264 79.488 21.1027 78.344 20.78C77.2147 20.4427 76.3053 20.01 75.616 19.482L76.826 16.798C77.486 17.282 78.2707 17.6707 79.18 17.964C80.0893 18.2573 80.9987 18.404 81.908 18.404C82.92 18.404 83.668 18.2573 84.152 17.964C84.636 17.656 84.878 17.2527 84.878 16.754C84.878 16.3873 84.7313 16.0867 84.438 15.852C84.1593 15.6027 83.7927 15.4047 83.338 15.258C82.898 15.1113 82.2967 14.95 81.534 14.774C80.3607 14.4953 79.4 14.2167 78.652 13.938C77.904 13.6593 77.2587 13.212 76.716 12.596C76.188 11.98 75.924 11.1587 75.924 10.132C75.924 9.23733 76.166 8.43067 76.65 7.712C77.134 6.97867 77.86 6.39933 78.828 5.974C79.8107 5.54867 81.006 5.336 82.414 5.336C83.3967 5.336 84.3573 5.45333 85.296 5.688C86.2347 5.92267 87.056 6.26 87.76 6.7L86.66 9.406C85.2373 8.59933 83.8147 8.196 82.392 8.196C81.3947 8.196 80.654 8.35733 80.17 8.68C79.7007 9.00267 79.466 9.428 79.466 9.956C79.466 10.484 79.7373 10.88 80.28 11.144C80.8373 11.3933 81.6807 11.6427 82.81 11.892C83.9833 12.1707 84.944 12.4493 85.692 12.728C86.44 13.0067 87.078 13.4467 87.606 14.048C88.1487 14.6493 88.42 15.4633 88.42 16.49C88.42 17.37 88.1707 18.1767 87.672 18.91C87.188 19.6287 86.4547 20.2007 85.472 20.626C84.4893 21.0513 83.294 21.264 81.886 21.264ZM98.2253 21.264C96.656 21.264 95.2333 20.9267 93.9573 20.252C92.696 19.5627 91.6986 18.6167 90.9653 17.414C90.2466 16.1967 89.8873 14.8253 89.8873 13.3C89.8873 11.7747 90.2466 10.4107 90.9653 9.208C91.6986 7.99067 92.696 7.04467 93.9573 6.37C95.2333 5.68067 96.6633 5.336 98.2473 5.336C99.582 5.336 100.785 5.57067 101.855 6.04C102.941 6.50933 103.85 7.184 104.583 8.064L102.295 10.176C101.254 8.97333 99.9633 8.372 98.4233 8.372C97.47 8.372 96.6193 8.58467 95.8713 9.01C95.1233 9.42067 94.5366 10 94.1113 10.748C93.7006 11.496 93.4953 12.3467 93.4953 13.3C93.4953 14.2533 93.7006 15.104 94.1113 15.852C94.5366 16.6 95.1233 17.1867 95.8713 17.612C96.6193 18.0227 97.47 18.228 98.4233 18.228C99.9633 18.228 101.254 17.6193 102.295 16.402L104.583 18.514C103.85 19.4087 102.941 20.0907 101.855 20.56C100.77 21.0293 99.56 21.264 98.2253 21.264ZM120.542 5.6V21H118.936V13.894H109.3V21H107.672V5.6H109.3V12.464H118.936V5.6H120.542ZM135.315 15.698H125.635C125.723 16.9007 126.185 17.876 127.021 18.624C127.857 19.3573 128.913 19.724 130.189 19.724C130.907 19.724 131.567 19.5993 132.169 19.35C132.77 19.086 133.291 18.7047 133.731 18.206L134.611 19.218C134.097 19.834 133.452 20.3033 132.675 20.626C131.912 20.9487 131.069 21.11 130.145 21.11C128.957 21.11 127.901 20.8607 126.977 20.362C126.067 19.8487 125.356 19.1447 124.843 18.25C124.329 17.3553 124.073 16.3433 124.073 15.214C124.073 14.0847 124.315 13.0727 124.799 12.178C125.297 11.2833 125.972 10.5867 126.823 10.088C127.688 9.58933 128.656 9.34 129.727 9.34C130.797 9.34 131.758 9.58933 132.609 10.088C133.459 10.5867 134.127 11.2833 134.611 12.178C135.095 13.058 135.337 14.07 135.337 15.214L135.315 15.698ZM129.727 10.682C128.612 10.682 127.673 11.0413 126.911 11.76C126.163 12.464 125.737 13.388 125.635 14.532H133.841C133.738 13.388 133.305 12.464 132.543 11.76C131.795 11.0413 130.856 10.682 129.727 10.682ZM138.516 4.676H140.078V21H138.516V4.676ZM150.386 9.34C151.471 9.34 152.454 9.58933 153.334 10.088C154.214 10.572 154.903 11.2613 155.402 12.156C155.901 13.0507 156.15 14.07 156.15 15.214C156.15 16.3727 155.901 17.3993 155.402 18.294C154.903 19.1887 154.214 19.8853 153.334 20.384C152.469 20.868 151.486 21.11 150.386 21.11C149.447 21.11 148.597 20.9193 147.834 20.538C147.086 20.142 146.47 19.57 145.986 18.822V25.268H144.424V9.428H145.92V11.716C146.389 10.9533 147.005 10.3667 147.768 9.956C148.545 9.54533 149.418 9.34 150.386 9.34ZM150.276 19.724C151.083 19.724 151.816 19.5407 152.476 19.174C153.136 18.7927 153.649 18.2573 154.016 17.568C154.397 16.8787 154.588 16.094 154.588 15.214C154.588 14.334 154.397 13.5567 154.016 12.882C153.649 12.1927 153.136 11.6573 152.476 11.276C151.816 10.8947 151.083 10.704 150.276 10.704C149.455 10.704 148.714 10.8947 148.054 11.276C147.409 11.6573 146.895 12.1927 146.514 12.882C146.147 13.5567 145.964 14.334 145.964 15.214C145.964 16.094 146.147 16.8787 146.514 17.568C146.895 18.2573 147.409 18.7927 148.054 19.174C148.714 19.5407 149.455 19.724 150.276 19.724ZM169.41 15.698H159.73C159.818 16.9007 160.28 17.876 161.116 18.624C161.952 19.3573 163.008 19.724 164.284 19.724C165.003 19.724 165.663 19.5993 166.264 19.35C166.866 19.086 167.386 18.7047 167.826 18.206L168.706 19.218C168.193 19.834 167.548 20.3033 166.77 20.626C166.008 20.9487 165.164 21.11 164.24 21.11C163.052 21.11 161.996 20.8607 161.072 20.362C160.163 19.8487 159.452 19.1447 158.938 18.25C158.425 17.3553 158.168 16.3433 158.168 15.214C158.168 14.0847 158.41 13.0727 158.894 12.178C159.393 11.2833 160.068 10.5867 160.918 10.088C161.784 9.58933 162.752 9.34 163.822 9.34C164.893 9.34 165.854 9.58933 166.704 10.088C167.555 10.5867 168.222 11.2833 168.706 12.178C169.19 13.058 169.432 14.07 169.432 15.214L169.41 15.698ZM163.822 10.682C162.708 10.682 161.769 11.0413 161.006 11.76C160.258 12.464 159.833 13.388 159.73 14.532H167.936C167.834 13.388 167.401 12.464 166.638 11.76C165.89 11.0413 164.952 10.682 163.822 10.682ZM174.108 11.694C174.474 10.9167 175.017 10.33 175.736 9.934C176.469 9.538 177.371 9.34 178.442 9.34V10.858L178.068 10.836C176.85 10.836 175.897 11.21 175.208 11.958C174.518 12.706 174.174 13.7547 174.174 15.104V21H172.612V9.428H174.108V11.694Z" fill="#999999"/>
</svg>
