<?xml version="1.0" encoding="UTF-8"?>
<svg version="1.1" xmlns="http://www.w3.org/2000/svg" width="204" height="192">
<path d="M0 0 C67.32 0 134.64 0 204 0 C204 63.36 204 126.72 204 192 C136.68 192 69.36 192 0 192 C0 128.64 0 65.28 0 0 Z " fill="#FE5301" transform="translate(0,0)"/>
<path d="M0 0 C6.61621622 0.90810811 6.61621622 0.90810811 9.21875 1.53125 C12.92081682 2.15519385 16.57194746 2.10595593 20.3125 2.0625 C21.05306641 2.05798828 21.79363281 2.05347656 22.55664062 2.04882812 C24.37112899 2.03712175 26.18557534 2.01918898 28 2 C27.34 2.33 26.68 2.66 26 3 C26 3.66 26 4.32 26 5 C26.99 5 27.98 5 29 5 C29 4.34 29 3.68 29 3 C29.99 3.33 30.98 3.66 32 4 C31.34 5.32 30.68 6.64 30 8 C30.928125 8.4640625 30.928125 8.4640625 31.875 8.9375 C33.25 9.625 34.625 10.3125 36 11 C36 11.66 36 12.32 36 13 C36.88945312 13.36158203 36.88945312 13.36158203 37.796875 13.73046875 C40.43522464 15.25079434 41.56915461 16.78698736 43.25 19.3125 C44.03117187 20.45138672 44.03117187 20.45138672 44.828125 21.61328125 C46.14446007 24.294217 46.22956074 26.05223147 46 29 C46.94359375 28.94779297 46.94359375 28.94779297 47.90625 28.89453125 C53.7556529 28.70953507 58.91228392 28.86239351 64 32 C67.35672793 35.15927335 70.75219458 38.58694395 71.23828125 43.3203125 C71.43718378 50.83673451 70.57351044 56.20262695 65.31640625 61.7890625 C60.46557599 66.19132136 56.98498208 67.11979265 50.43701172 67.14526367 C49.32260712 67.15164352 48.20820251 67.15802338 47.06002808 67.16459656 C45.86201569 67.16570938 44.6640033 67.1668222 43.4296875 67.16796875 C41.58082443 67.17296135 41.58082443 67.17296135 39.6946106 67.17805481 C37.09051893 67.18311608 34.48642079 67.18546338 31.88232422 67.18530273 C29.20712581 67.18522109 26.53209722 67.19222236 23.85693359 67.20581055 C20.00613123 67.22404396 16.15552859 67.22903494 12.3046875 67.23046875 C10.50159622 67.24124702 10.50159622 67.24124702 8.66207886 67.25224304 C7.55397858 67.24916641 6.4458783 67.24608978 5.30419922 67.24291992 C4.32587128 67.24434494 3.34754333 67.24576996 2.33956909 67.24723816 C0 67 0 67 -2 65 C-2.17502995 62.41896694 -2.23162279 59.94691837 -2.1953125 57.3671875 C-2.1924826 56.61535187 -2.18965271 55.86351624 -2.18673706 55.08889771 C-2.17552874 52.68410422 -2.15042352 50.27968119 -2.125 47.875 C-2.11497102 46.24609912 -2.10584503 44.61719242 -2.09765625 42.98828125 C-2.07558735 38.99204444 -2.04105351 34.99608506 -2 31 C-2.66 31 -3.32 31 -4 31 C-4.01981934 31.66418945 -4.03963867 32.32837891 -4.06005859 33.01269531 C-4.82463304 57.36924918 -4.82463304 57.36924918 -7 67 C-8.32 66.67 -9.64 66.34 -11 66 C-11.85001765 57.77620965 -12.27955342 49.57361246 -12.5625 41.3125 C-12.60568359 40.12205078 -12.64886719 38.93160156 -12.69335938 37.70507812 C-12.79823679 34.80346966 -12.90040196 31.90179365 -13 29 C-14.30041254 31.60082508 -14.19441419 33.62132641 -14.28125 36.53125 C-14.31863281 37.65273437 -14.35601562 38.77421875 -14.39453125 39.9296875 C-14.42933594 41.10789063 -14.46414062 42.28609375 -14.5 43.5 C-14.73887367 51.37398409 -15.08073388 59.17285062 -16 67 C-18.475 67.495 -18.475 67.495 -21 68 C-21.33 67.34 -21.66 66.68 -22 66 C-22.86625 66.495 -22.86625 66.495 -23.75 67 C-26 68 -26 68 -30 68 C-30.80774065 63.04807655 -31.14784351 58.25168666 -31.1328125 53.23046875 C-31.13376923 52.50942459 -31.13472595 51.78838043 -31.13571167 51.04548645 C-31.13638809 49.52861442 -31.1345716 48.01173941 -31.13037109 46.49487305 C-31.12503887 44.2041962 -31.13032229 41.91371753 -31.13671875 39.62304688 C-31.14193547 33.43172495 -31.12204375 27.2317755 -30.7421875 21.05078125 C-30.69690918 20.30094971 -30.65163086 19.55111816 -30.60498047 18.77856445 C-30 17 -30 17 -27.95361328 15.74682617 C-27.3089209 15.50037354 -26.66422852 15.2539209 -26 15 C-25.67 15.99 -25.34 16.98 -25 18 C-24.67 17.01 -24.34 16.02 -24 15 C-23.01 15 -22.02 15 -21 15 C-21 16.32 -21 17.64 -21 19 C-19.02 19 -17.04 19 -15 19 C-14.67 17.68 -14.34 16.36 -14 15 C-13.67 15 -13.34 15 -13 15 C-12.67 12.69 -12.34 10.38 -12 8 C-10.68 8.99 -9.36 9.98 -8 11 C-8 10.34 -8 9.68 -8 9 C-7.01 9 -6.02 9 -5 9 C-4.67 6.69 -4.34 4.38 -4 2 C-3.67 3.32 -3.34 4.64 -3 6 C-2.401875 5.67 -1.80375 5.34 -1.1875 5 C1 4 1 4 4 4 C4 3.34 4 2.68 4 2 C2.68 2 1.36 2 0 2 C0 1.34 0 0.68 0 0 Z " fill="#FDFDFD" transform="translate(100,57)"/>
<path d="M0 0 C6.61621622 0.90810811 6.61621622 0.90810811 9.21875 1.53125 C12.92081682 2.15519385 16.57194746 2.10595593 20.3125 2.0625 C21.05306641 2.05798828 21.79363281 2.05347656 22.55664062 2.04882812 C24.37112899 2.03712175 26.18557534 2.01918898 28 2 C27.34 2.33 26.68 2.66 26 3 C26 3.66 26 4.32 26 5 C26.99 5 27.98 5 29 5 C29 4.34 29 3.68 29 3 C29.99 3.33 30.98 3.66 32 4 C31.34 4.99 30.68 5.98 30 7 C28.96875 6.67 27.9375 6.34 26.875 6 C17.28756206 3.62872976 9.17447982 4.55957007 0 8 C-0.33 26.81 -0.66 45.62 -1 65 C-1.33 65 -1.66 65 -2 65 C-2 53.78 -2 42.56 -2 31 C-2.66 31 -3.32 31 -4 31 C-4.01981934 31.66418945 -4.03963867 32.32837891 -4.06005859 33.01269531 C-4.82463304 57.36924918 -4.82463304 57.36924918 -7 67 C-8.32 66.67 -9.64 66.34 -11 66 C-11.85001765 57.77620965 -12.27955342 49.57361246 -12.5625 41.3125 C-12.60568359 40.12205078 -12.64886719 38.93160156 -12.69335938 37.70507812 C-12.79823679 34.80346966 -12.90040196 31.90179365 -13 29 C-14.30041254 31.60082508 -14.19441419 33.62132641 -14.28125 36.53125 C-14.31863281 37.65273437 -14.35601562 38.77421875 -14.39453125 39.9296875 C-14.42933594 41.10789063 -14.46414062 42.28609375 -14.5 43.5 C-14.73887367 51.37398409 -15.08073388 59.17285062 -16 67 C-18.475 67.495 -18.475 67.495 -21 68 C-21.33 67.34 -21.66 66.68 -22 66 C-22.86625 66.495 -22.86625 66.495 -23.75 67 C-26 68 -26 68 -30 68 C-30.80774065 63.04807655 -31.14784351 58.25168666 -31.1328125 53.23046875 C-31.13376923 52.50942459 -31.13472595 51.78838043 -31.13571167 51.04548645 C-31.13638809 49.52861442 -31.1345716 48.01173941 -31.13037109 46.49487305 C-31.12503887 44.2041962 -31.13032229 41.91371753 -31.13671875 39.62304688 C-31.14193547 33.43172495 -31.12204375 27.2317755 -30.7421875 21.05078125 C-30.69690918 20.30094971 -30.65163086 19.55111816 -30.60498047 18.77856445 C-30 17 -30 17 -27.95361328 15.74682617 C-27.3089209 15.50037354 -26.66422852 15.2539209 -26 15 C-25.67 15.99 -25.34 16.98 -25 18 C-24.67 17.01 -24.34 16.02 -24 15 C-23.01 15 -22.02 15 -21 15 C-21 16.32 -21 17.64 -21 19 C-19.02 19 -17.04 19 -15 19 C-14.67 17.68 -14.34 16.36 -14 15 C-13.67 15 -13.34 15 -13 15 C-12.67 12.69 -12.34 10.38 -12 8 C-10.68 8.99 -9.36 9.98 -8 11 C-8 10.34 -8 9.68 -8 9 C-7.01 9 -6.02 9 -5 9 C-4.67 6.69 -4.34 4.38 -4 2 C-3.67 3.32 -3.34 4.64 -3 6 C-2.401875 5.67 -1.80375 5.34 -1.1875 5 C1 4 1 4 4 4 C4 3.34 4 2.68 4 2 C2.68 2 1.36 2 0 2 C0 1.34 0 0.68 0 0 Z " fill="#F65312" transform="translate(100,57)"/>
<path d="M0 0 C6.61621622 0.90810811 6.61621622 0.90810811 9.21875 1.53125 C12.92081682 2.15519385 16.57194746 2.10595593 20.3125 2.0625 C21.05306641 2.05798828 21.79363281 2.05347656 22.55664062 2.04882812 C24.37112899 2.03712175 26.18557534 2.01918898 28 2 C27.34 2.33 26.68 2.66 26 3 C26 3.66 26 4.32 26 5 C26.99 5 27.98 5 29 5 C29 4.34 29 3.68 29 3 C29.99 3.33 30.98 3.66 32 4 C31.34 4.99 30.68 5.98 30 7 C28.96875 6.67 27.9375 6.34 26.875 6 C17.28756206 3.62872976 9.17447982 4.55957007 0 8 C-0.33 26.81 -0.66 45.62 -1 65 C-1.33 65 -1.66 65 -2 65 C-2 53.78 -2 42.56 -2 31 C-2.66 31 -3.32 31 -4 31 C-4.01981934 31.66418945 -4.03963867 32.32837891 -4.06005859 33.01269531 C-4.82463304 57.36924918 -4.82463304 57.36924918 -7 67 C-8.32 66.67 -9.64 66.34 -11 66 C-11.85001765 57.77620965 -12.27955342 49.57361246 -12.5625 41.3125 C-12.60568359 40.12205078 -12.64886719 38.93160156 -12.69335938 37.70507812 C-12.79823679 34.80346966 -12.90040196 31.90179365 -13 29 C-14.34106405 31.6821281 -14.21450419 33.88398032 -14.31640625 36.8828125 C-14.35830078 38.04941406 -14.40019531 39.21601562 -14.44335938 40.41796875 C-14.48267578 41.64128906 -14.52199219 42.86460938 -14.5625 44.125 C-14.60568359 45.35605469 -14.64886719 46.58710937 -14.69335938 47.85546875 C-14.79968704 50.90352853 -14.90171781 53.9516719 -15 57 C-15.33 57 -15.66 57 -16 57 C-16.33 44.46 -16.66 31.92 -17 19 C-16.34 19 -15.68 19 -15 19 C-14.67 17.68 -14.34 16.36 -14 15 C-13.67 15 -13.34 15 -13 15 C-12.67 12.69 -12.34 10.38 -12 8 C-10.68 8.99 -9.36 9.98 -8 11 C-8 10.34 -8 9.68 -8 9 C-7.01 9 -6.02 9 -5 9 C-4.67 6.69 -4.34 4.38 -4 2 C-3.67 3.32 -3.34 4.64 -3 6 C-2.401875 5.67 -1.80375 5.34 -1.1875 5 C1 4 1 4 4 4 C4 3.34 4 2.68 4 2 C2.68 2 1.36 2 0 2 C0 1.34 0 0.68 0 0 Z " fill="#F06D2E" transform="translate(100,57)"/>
<path d="M0 0 C1.84271484 -0.02126953 1.84271484 -0.02126953 3.72265625 -0.04296875 C6.9375 0.1875 6.9375 0.1875 9.9375 2.1875 C-0.4575 2.6825 -0.4575 2.6825 -11.0625 3.1875 C-13.0353862 8.1197155 -13.12756877 10.94774613 -12.6875 16 C-12.01451515 25.46342584 -11.97038541 34.89348149 -12 44.375 C-12.00195374 45.10715729 -12.00390747 45.83931458 -12.00592041 46.59365845 C-12.01804262 50.79165178 -12.03722761 54.98956218 -12.0625 59.1875 C-11.43689178 59.18527939 -10.81128357 59.18305878 -10.16671753 59.18077087 C-3.64533053 59.15861797 2.87604576 59.14355161 9.39746094 59.13256836 C11.83008254 59.12754496 14.26270114 59.12072509 16.6953125 59.11206055 C20.19532007 59.09990774 23.69528765 59.09425168 27.1953125 59.08984375 C28.27990753 59.08468246 29.36450256 59.07952118 30.48196411 59.07420349 C35.41252938 59.0738386 40.09337607 59.1317294 44.9375 60.1875 C44.9375 60.8475 44.9375 61.5075 44.9375 62.1875 C41.68428747 63.15660087 38.74655411 63.31415234 35.35864258 63.31689453 C34.24101028 63.32004669 33.12337799 63.32319885 31.97187805 63.32644653 C30.77072861 63.3244223 29.56957916 63.32239807 28.33203125 63.3203125 C26.47961067 63.32174759 26.47961067 63.32174759 24.58976746 63.32321167 C21.31371294 63.32406612 18.03770593 63.3200428 14.76165771 63.31445312 C12.74742127 63.3124975 10.73322821 63.31445186 8.71899414 63.31787109 C4.86081905 63.32402033 1.00270896 63.32330843 -2.85546875 63.3203125 C-4.66630196 63.32334885 -4.66630196 63.32334885 -6.51371765 63.32644653 C-8.17598137 63.32171829 -8.17598137 63.32171829 -9.87182617 63.31689453 C-10.85237473 63.31609894 -11.83292328 63.31530334 -12.84318542 63.31448364 C-15.0625 63.1875 -15.0625 63.1875 -16.0625 62.1875 C-16.18242979 60.39364243 -16.23268487 58.59508224 -16.25537109 56.79736328 C-16.27143402 55.64591827 -16.28749695 54.49447327 -16.30404663 53.30813599 C-16.34827487 48.03761159 -16.39000381 42.76723865 -16.41259766 37.49658203 C-16.42925127 34.02024115 -16.47402855 30.54484737 -16.5249691 27.06886482 C-16.56668461 23.75689748 -16.57377473 20.44501805 -16.5859375 17.1328125 C-16.60860687 15.88275421 -16.63127625 14.63269592 -16.65463257 13.34475708 C-16.65035751 11.60813309 -16.65035751 11.60813309 -16.64599609 9.83642578 C-16.65408295 8.81574005 -16.6621698 7.79505432 -16.67050171 6.74343872 C-16.0625 4.1875 -16.0625 4.1875 -13.64297485 2.37667847 C-8.98194822 0.22870462 -5.14906525 0.02707185 0 0 Z " fill="#FAFDFA" transform="translate(115.0625,60.8125)"/>
<path d="M0 0 C0.33 0 0.66 0 1 0 C1 2.31 1 4.62 1 7 C1.66 7 2.32 7 3 7 C3.14298018 11.78717411 3.28538147 16.57436496 3.42724609 21.36157227 C3.4755894 22.99015773 3.52409095 24.61873851 3.57275391 26.24731445 C3.64266894 28.58804123 3.71201507 30.92878427 3.78125 33.26953125 C3.80312378 33.99775589 3.82499756 34.72598053 3.84753418 35.47627258 C4.09034156 43.72897533 4.09034156 43.72897533 3 47 C0.03 46.01 -2.94 45.02 -6 44 C-6.99 44.99 -7.98 45.98 -9 47 C-12.6875 47.1875 -12.6875 47.1875 -16 47 C-16 46.34 -16 45.68 -16 45 C-16.66 45 -17.32 45 -18 45 C-18 45.66 -18 46.32 -18 47 C-20.31 47 -22.62 47 -25 47 C-25.33 45.68 -25.66 44.36 -26 43 C-24.35 43.33 -22.7 43.66 -21 44 C-20.67 43.34 -20.34 42.68 -20 42 C-19.34 42.33 -18.68 42.66 -18 43 C-17.67 41.68 -17.34 40.36 -17 39 C-16.67 40.65 -16.34 42.3 -16 44 C-14.02 43.505 -14.02 43.505 -12 43 C-10.93502366 34.01865687 -10.68654053 25.05356269 -10.48242188 16.01757812 C-10.44826172 14.89931641 -10.41410156 13.78105469 -10.37890625 12.62890625 C-10.3538501 11.61900635 -10.32879395 10.60910645 -10.30297852 9.56860352 C-10 7 -10 7 -8 4 C-6.27769376 5.72230624 -6.78900766 8.04667433 -6.71875 10.3984375 C-6.68136719 11.51863281 -6.64398438 12.63882813 -6.60546875 13.79296875 C-6.55326172 15.56607422 -6.55326172 15.56607422 -6.5 17.375 C-6.24906286 25.61874981 -5.8564771 33.79486619 -5 42 C-3.515 42.495 -3.515 42.495 -2 43 C-1.08836994 33.59063545 -0.70647648 24.19381898 -0.4375 14.75 C-0.39417014 13.31118916 -0.35055206 11.87238696 -0.30664062 10.43359375 C-0.20111491 6.95582224 -0.09945226 3.47795112 0 0 Z " fill="#F74B0A" transform="translate(95,81)"/>
<path d="M0 0 C1.98 0.495 1.98 0.495 4 1 C5.29955683 5.96012579 5.1439572 10.88493398 5.1328125 15.97265625 C5.13376923 16.93272079 5.13472595 17.89278534 5.13571167 18.88194275 C5.13639074 20.90672878 5.13455552 22.93151701 5.13037109 24.95629883 C5.12501314 28.05489993 5.13032837 31.15335648 5.13671875 34.25195312 C5.13605803 36.22135449 5.13477701 38.19075576 5.1328125 40.16015625 C5.13483673 41.08627213 5.13686096 42.012388 5.13894653 42.96656799 C5.13579437 43.8310405 5.13264221 44.695513 5.12939453 45.58618164 C5.12820114 46.72271935 5.12820114 46.72271935 5.12698364 47.88221741 C4.99794768 50.03422772 4.5903424 51.9308717 4 54 C2.68 53.67 1.36 53.34 0 53 C-0.80834191 45.4588513 -1.15987319 38.01992832 -1.125 30.4375 C-1.12306641 29.40625 -1.12113281 28.375 -1.11914062 27.3125 C-1.06837216 18.18545735 -0.64362622 9.1027137 0 0 Z " fill="#F7F3E9" transform="translate(89,70)"/>
<path d="M0 0 C0.99 0 1.98 0 3 0 C4.13347815 3.62780545 4.12929605 7.03510501 4.1328125 10.8203125 C4.13376923 11.47901337 4.13472595 12.13771423 4.13571167 12.81637573 C4.13639083 14.20994156 4.13455499 15.6035106 4.13037109 16.99707031 C4.12507047 19.09708055 4.13029823 21.19687184 4.13671875 23.296875 C4.13996286 30.58509275 3.95151128 37.76721381 3 45 C1.68 45 0.36 45 -1 45 C-1.73879967 40.3746152 -2.12812774 35.93632408 -2.1328125 31.25390625 C-2.13410156 30.00416016 -2.13539062 28.75441406 -2.13671875 27.46679688 C-2.13285156 26.17837891 -2.12898438 24.88996094 -2.125 23.5625 C-2.12886719 22.27794922 -2.13273437 20.99339844 -2.13671875 19.66992188 C-2.11863396 2.11863396 -2.11863396 2.11863396 0 0 Z " fill="#F7E6DD" transform="translate(61,79)"/>
<path d="M0 0 C0.99 0 1.98 0 3 0 C3.83287644 2.9049476 4.12219788 5.47513918 4.11352539 8.49316406 C4.11344986 9.37377502 4.11337433 10.25438599 4.11329651 11.16168213 C4.10813522 12.10348328 4.10297394 13.04528442 4.09765625 14.015625 C4.0962413 14.98659119 4.09482635 15.95755737 4.09336853 16.95794678 C4.08777663 20.05532935 4.07522559 23.15263932 4.0625 26.25 C4.05748395 28.35156146 4.05292123 30.45312404 4.04882812 32.5546875 C4.03780985 37.70315292 4.02055074 42.85156416 4 48 C2.68 48 1.36 48 0 48 C-0.93117577 45.2064727 -1.12642037 43.52211075 -1.12939453 40.63623047 C-1.13254669 39.75877167 -1.13569885 38.88131287 -1.13894653 37.9772644 C-1.1369223 37.03343903 -1.13489807 36.08961365 -1.1328125 35.1171875 C-1.13376923 34.14717804 -1.13472595 33.17716858 -1.13571167 32.17776489 C-1.13639208 30.12843765 -1.13454749 28.07910825 -1.13037109 26.02978516 C-1.12500934 22.8804851 -1.13032674 19.73132692 -1.13671875 16.58203125 C-1.13605817 14.59374968 -1.13477743 12.60546821 -1.1328125 10.6171875 C-1.13483673 9.66931366 -1.13686096 8.72143982 -1.13894653 7.74484253 C-1.13579437 6.87368805 -1.13264221 6.00253357 -1.12939453 5.10498047 C-1.12820114 3.9494014 -1.12820114 3.9494014 -1.12698364 2.77047729 C-1 1 -1 1 0 0 Z " fill="#F9FBFB" transform="translate(80,76)"/>
<path d="M0 0 C0.99 0 1.98 0 3 0 C4.19804537 4.70592697 4.14447574 9.27734465 4.1328125 14.09765625 C4.13376923 14.96893661 4.13472595 15.84021698 4.13571167 16.73789978 C4.13639038 18.57437208 4.13455769 20.4108468 4.13037109 22.24731445 C4.12501201 25.05620712 4.13032989 27.86494037 4.13671875 30.67382812 C4.13605804 32.46093785 4.13477703 34.24804748 4.1328125 36.03515625 C4.13584885 37.29308739 4.13584885 37.29308739 4.13894653 38.57643127 C4.13579437 39.36082077 4.13264221 40.14521027 4.12939453 40.95336914 C4.12820114 41.98331749 4.12820114 41.98331749 4.12698364 43.03407288 C3.99204408 45.12317144 3.56638829 46.98840624 3 49 C2.01 49 1.02 49 0 49 C-0.8972085 44.40481348 -1.14661309 39.95973142 -1.1328125 35.29296875 C-1.13376923 34.56813797 -1.13472595 33.84330719 -1.13571167 33.09651184 C-1.13638904 31.56946729 -1.13456581 30.0424198 -1.13037109 28.51538086 C-1.12504003 26.20484783 -1.13031908 23.89451125 -1.13671875 21.58398438 C-1.13965787 14.32876366 -1.03394576 7.1965907 0 0 Z " fill="#FAFCFB" transform="translate(70,75)"/>
<path d="M0 0 C3 1 3 1 4 3 C4.24549809 7.62031532 4.18520758 12.24890357 4.1875 16.875 C4.19974609 18.16792969 4.21199219 19.46085937 4.22460938 20.79296875 C4.22654297 22.03433594 4.22847656 23.27570313 4.23046875 24.5546875 C4.23457764 25.69405762 4.23868652 26.83342773 4.24291992 28.00732422 C4.00777348 30.90423385 3.50948068 32.55387104 2 35 C1.01 34.67 0.02 34.34 -1 34 C-1.96729891 28.30454401 -2.18319276 22.7717045 -2.1875 17 C-2.19974609 16.13632813 -2.21199219 15.27265625 -2.22460938 14.3828125 C-2.23645018 9.18864429 -1.69020887 4.91697125 0 0 Z " fill="#F8E8D8" transform="translate(51,89)"/>
<path d="M0 0 C0.33 0 0.66 0 1 0 C0.90745612 6.29909196 0.80011542 12.59780882 0.68261719 18.89648438 C0.64439847 21.03802816 0.60953332 23.17963457 0.578125 25.32128906 C0.53232021 28.40452417 0.47435083 31.48733071 0.4140625 34.5703125 C0.39673569 36.00034103 0.39673569 36.00034103 0.37905884 37.45925903 C0.26988153 42.40709923 -0.27133019 46.31027715 -2 51 C-1.67 51.66 -1.34 52.32 -1 53 C-4.55780196 52.39009109 -7.6828589 51.4216319 -11 50 C-11 50.99 -11 51.98 -11 53 C-11.99 53 -12.98 53 -14 53 C-14 52.01 -14 51.02 -14 50 C-14.804375 50.020625 -15.60875 50.04125 -16.4375 50.0625 C-19 50 -19 50 -20 49 C-20.14115161 46.32941149 -20.04247107 43.67567762 -20 41 C-19.67 41 -19.34 41 -19 41 C-18.67 43.31 -18.34 45.62 -18 48 C-16.68 48 -15.36 48 -14 48 C-14 47.34 -14 46.68 -14 46 C-12.68 46.33 -11.36 46.66 -10 47 C-10 45.35 -10 43.7 -10 42 C-9.67 42 -9.34 42 -9 42 C-9 44.31 -9 46.62 -9 49 C-7.68 49 -6.36 49 -5 49 C-4.67 39.76 -4.34 30.52 -4 21 C-3.67 21 -3.34 21 -3 21 C-3 26.28 -3 31.56 -3 37 C-2.34 37 -1.68 37 -1 37 C-1.0407666 36.0212793 -1.0815332 35.04255859 -1.12353516 34.03417969 C-1.27220835 30.39669128 -1.40676814 26.75879309 -1.53710938 23.12060547 C-1.59544307 21.54721619 -1.65758355 19.97396318 -1.72363281 18.40087891 C-1.81800832 16.13729671 -1.89860024 13.87357465 -1.9765625 11.609375 C-2.00875885 10.90818542 -2.0409552 10.20699585 -2.0741272 9.48455811 C-2.18715539 5.78425323 -2.061847 3.13851114 0 0 Z " fill="#F3541F" transform="translate(69,75)"/>
<path d="M0 0 C1.32 0 2.64 0 4 0 C4.89185471 3.82160184 5.12874015 7.36854911 5.1328125 11.2890625 C5.13474609 13.07183594 5.13474609 13.07183594 5.13671875 14.890625 C5.13285156 16.12296875 5.12898438 17.3553125 5.125 18.625 C5.12886719 19.86507812 5.13273437 21.10515625 5.13671875 22.3828125 C5.13542969 23.56875 5.13414063 24.7546875 5.1328125 25.9765625 C5.13168457 27.06018066 5.13055664 28.14379883 5.12939453 29.26025391 C5 32 5 32 4 35 C2.68 34.67 1.36 34.34 0 34 C-1.18187313 22.66668085 -1.82140593 11.28982566 0 0 Z " fill="#F8E5D5" transform="translate(40,88)"/>
<path d="M0 0 C0.33 0 0.66 0 1 0 C1 5.28 1 10.56 1 16 C2.51352051 15.99476318 4.02704102 15.98952637 5.58642578 15.98413086 C11.21093147 15.96600736 16.83543458 15.95454109 22.45996094 15.94506836 C24.89258254 15.94004496 27.32520114 15.93322509 29.7578125 15.92456055 C33.25782007 15.91240774 36.75778765 15.90675168 40.2578125 15.90234375 C41.34240753 15.89718246 42.42700256 15.89202118 43.54446411 15.88670349 C48.47502938 15.8863386 53.15587607 15.9442294 58 17 C58 17.66 58 18.32 58 19 C54.73897134 19.97397286 51.80178129 20.12117518 48.40527344 20.11352539 C47.28441345 20.11344986 46.16355347 20.11337433 45.00872803 20.11329651 C43.80444153 20.10813522 42.60015503 20.10297394 41.359375 20.09765625 C40.12205627 20.0962413 38.88473755 20.09482635 37.60992432 20.09336853 C34.32855059 20.0887211 31.04722627 20.07974347 27.76586914 20.06866455 C24.41422989 20.0584152 21.06258852 20.05394859 17.7109375 20.04882812 C11.14060569 20.03780025 4.57030689 20.02106296 -2 20 C-2.33 19.34 -2.66 18.68 -3 18 C-1.68 18 -0.36 18 1 18 C0.34 17.34 -0.32 16.68 -1 16 C-1.17163731 13.43707683 -1.23264558 10.99654143 -1.1875 8.4375 C-1.18685547 7.73947266 -1.18621094 7.04144531 -1.18554688 6.32226562 C-1.14031158 1.14031158 -1.14031158 1.14031158 0 0 Z " fill="#FAF3E5" transform="translate(102,104)"/>
<path d="M0 0 C1.32 0 2.64 0 4 0 C6.37590142 3.70416126 6.20500286 6.92984573 6.125 11.25 C6.10695313 12.51328125 6.08890625 13.7765625 6.0703125 15.078125 C6.04710937 16.04234375 6.02390625 17.0065625 6 18 C5.34 18 4.68 18 4 18 C4 19.65 4 21.3 4 23 C3.01 23 2.02 23 1 23 C-1.2545707 15.3908239 -2.07521882 7.78207056 0 0 Z " fill="#F8F8F0" transform="translate(30,94)"/>
<path d="M0 0 C0 0.99 0 1.98 0 3 C0.04125 3.825 0.0825 4.65 0.125 5.5 C0 8 0 8 -2 11 C-6.42588071 11.77277282 -10.5165023 12 -15 12 C-15 11.01 -15 10.02 -15 9 C-32.16 9 -49.32 9 -67 9 C-67 8.67 -67 8.34 -67 8 C-66.31397202 7.99413376 -65.62794403 7.98826752 -64.92112732 7.98222351 C-57.76672939 7.91818078 -50.61277674 7.83373239 -43.45874023 7.73754883 C-40.79040589 7.702711 -38.1223661 7.67629674 -35.45385742 7.65356445 C-31.61346857 7.61994585 -27.77371498 7.56762359 -23.93359375 7.51171875 C-22.15038979 7.50213387 -22.15038979 7.50213387 -20.3311615 7.49235535 C-12.86181342 7.36042151 -7.3156661 6.97559778 -1.5625 1.8125 C-1.046875 1.214375 -0.53125 0.61625 0 0 Z " fill="#F45628" transform="translate(167,116)"/>
<path d="M0 0 C0.8632601 3.71888866 1.11721556 7.14296488 1.09765625 10.95703125 C1.09443359 12.06884766 1.09121094 13.18066406 1.08789062 14.32617188 C1.07951172 15.47666016 1.07113281 16.62714844 1.0625 17.8125 C1.05798828 18.98232422 1.05347656 20.15214844 1.04882812 21.35742188 C1.0370693 24.23833358 1.02063426 27.11914044 1 30 C0.01 28.68 -0.98 27.36 -2 26 C-1.67 27.32 -1.34 28.64 -1 30 C-1.99 29.67 -2.98 29.34 -4 29 C-3.99476318 28.38479492 -3.98952637 27.76958984 -3.98413086 27.13574219 C-3.96330629 24.34050524 -3.95032241 21.54528464 -3.9375 18.75 C-3.92912109 17.78191406 -3.92074219 16.81382813 -3.91210938 15.81640625 C-3.90727539 14.41455078 -3.90727539 14.41455078 -3.90234375 12.984375 C-3.89448853 11.69611816 -3.89448853 11.69611816 -3.88647461 10.38183594 C-3.99460014 8.11329256 -4.36417577 6.17368285 -5 4 C-5.99 4 -6.98 4 -8 4 C-8 3.34 -8 2.68 -8 2 C-3.61016949 -1.20338983 -3.61016949 -1.20338983 0 0 Z " fill="#F94D05" transform="translate(39,90)"/>
<path d="M0 0 C2.24734928 3.59264833 2.23200508 6.55142073 2.1953125 10.734375 C2.18886719 12.02988281 2.18242188 13.32539062 2.17578125 14.66015625 C2.15907193 16.02344019 2.14214206 17.38672144 2.125 18.75 C2.1149634 20.12889985 2.10583873 21.50780665 2.09765625 22.88671875 C2.07408093 26.25798882 2.0411727 29.62890636 2 33 C0.68 32.67 -0.64 32.34 -2 32 C-2.33 32.66 -2.66 33.32 -3 34 C-2.90625199 29.80039396 -2.80011195 25.60133688 -2.68261719 21.40234375 C-2.64439976 19.97469602 -2.60953428 18.54695437 -2.578125 17.11914062 C-2.53231599 15.06346132 -2.4743502 13.00842446 -2.4140625 10.953125 C-2.36693115 9.09929199 -2.36693115 9.09929199 -2.31884766 7.20800781 C-2.02317999 4.23321983 -1.55972669 2.50650816 0 0 Z " fill="#F74907" transform="translate(57,89)"/>
<path d="M0 0 C0.66 0.99 1.32 1.98 2 3 C2.33 2.01 2.66 1.02 3 0 C3.99 0 4.98 0 6 0 C7.12367611 4.40768576 7.04360745 8.63771865 6.87890625 13.14453125 C6.85529526 13.91431808 6.83168427 14.68410492 6.80735779 15.47721863 C6.73112309 17.92251905 6.6469275 20.36747011 6.5625 22.8125 C6.50923899 24.47589468 6.4564989 26.13930613 6.40429688 27.80273438 C6.2755628 31.86870849 6.13969106 35.93438818 6 40 C5.67 40 5.34 40 5 40 C4.67 30.1 4.34 20.2 4 10 C3.67 10 3.34 10 3 10 C2.67 20.56 2.34 31.12 2 42 C1.67 42 1.34 42 1 42 C0.67 29.13 0.34 16.26 0 3 C-0.99 2.67 -1.98 2.34 -3 2 C-2.01 1.34 -1.02 0.68 0 0 Z " fill="#F1814F" transform="translate(73,72)"/>
<path d="M0 0 C0.99 0 1.98 0 3 0 C3.83287644 2.9049476 4.12219788 5.47513918 4.11352539 8.49316406 C4.11344986 9.37377502 4.11337433 10.25438599 4.11329651 11.16168213 C4.10813522 12.10348328 4.10297394 13.04528442 4.09765625 14.015625 C4.0962413 14.98659119 4.09482635 15.95755737 4.09336853 16.95794678 C4.08777663 20.05532935 4.07522559 23.15263932 4.0625 26.25 C4.05748395 28.35156146 4.05292123 30.45312404 4.04882812 32.5546875 C4.03780985 37.70315292 4.02055074 42.85156416 4 48 C2.68 48 1.36 48 0 48 C-0.33 45.69 -0.66 43.38 -1 41 C-0.67 41.99 -0.34 42.98 0 44 C0.66 44 1.32 44 2 44 C2.33 38.72 2.66 33.44 3 28 C2.34 28 1.68 28 1 28 C1 25.36 1 22.72 1 20 C1.66 20 2.32 20 3 20 C2.67 15.05 2.34 10.1 2 5 C1.67 7.31 1.34 9.62 1 12 C-1.69461986 7.95807022 -1.23200889 5.7948504 -1 1 C-0.67 0.67 -0.34 0.34 0 0 Z " fill="#FDF8ED" transform="translate(80,76)"/>
<path d="M0 0 C0.33 0 0.66 0 1 0 C1 2.31 1 4.62 1 7 C1.66 7 2.32 7 3 7 C3 17.56 3 28.12 3 39 C2.67 39 2.34 39 2 39 C2 36.36 2 33.72 2 31 C1.34 31 0.68 31 0 31 C0 20.77 0 10.54 0 0 Z " fill="#FB4A01" transform="translate(95,81)"/>
<path d="M0 0 C0.33 0 0.66 0 1 0 C1 9.24 1 18.48 1 28 C-1.31 28.33 -3.62 28.66 -6 29 C-6.66 27.35 -7.32 25.7 -8 24 C-6.68 24 -5.36 24 -4 24 C-4 23.01 -4 22.02 -4 21 C-3.34 21 -2.68 21 -2 21 C-2 19.02 -2 17.04 -2 15 C-1.67 15 -1.34 15 -1 15 C-0.67 10.05 -0.34 5.1 0 0 Z " fill="#F54606" transform="translate(48,99)"/>
<path d="M0 0 C0.66 0.33 1.32 0.66 2 1 C1.67 2.32 1.34 3.64 1 5 C1.66 5 2.32 5 3 5 C3.05394705 7.60444348 3.09364469 10.20776998 3.125 12.8125 C3.14175781 13.55048828 3.15851562 14.28847656 3.17578125 15.04882812 C3.21074628 18.91246426 3.19397555 20.70903668 1 24 C-1 22 -1 22 -1.24291992 19.86108398 C-1.23881104 18.99813721 -1.23470215 18.13519043 -1.23046875 17.24609375 C-1.22853516 16.30958984 -1.22660156 15.37308594 -1.22460938 14.40820312 C-1.21236328 13.42787109 -1.20011719 12.44753906 -1.1875 11.4375 C-1.18685547 10.45330078 -1.18621094 9.46910156 -1.18554688 8.45507812 C-1.14017532 1.14017532 -1.14017532 1.14017532 0 0 Z " fill="#F9FBF9" transform="translate(51,91)"/>
<path d="M0 0 C0.28875 0.639375 0.5775 1.27875 0.875 1.9375 C1.82823451 4.15206079 1.82823451 4.15206079 4 5 C4.08117951 7.41734542 4.14056926 9.83194949 4.1875 12.25 C4.22520508 13.27287109 4.22520508 13.27287109 4.26367188 14.31640625 C4.31137459 17.59199289 4.21085076 19.65348556 2.48828125 22.484375 C1.99714844 22.98453125 1.50601563 23.4846875 1 24 C0.01956036 21.05868109 -0.11621202 19.17498335 -0.09765625 16.11328125 C-0.09443359 15.17548828 -0.09121094 14.23769531 -0.08789062 13.27148438 C-0.07532227 11.80678711 -0.07532227 11.80678711 -0.0625 10.3125 C-0.05798828 9.32443359 -0.05347656 8.33636719 -0.04882812 7.31835938 C-0.03704303 4.87884526 -0.02059011 2.43945311 0 0 Z " fill="#F8FBFA" transform="translate(40,96)"/>
<path d="M0 0 C1.32 0.33 2.64 0.66 4 1 C5.3226348 6.00221397 5.12593478 10.98145962 5.09765625 16.11328125 C5.0962413 17.08283249 5.09482635 18.05238373 5.09336853 19.05131531 C5.08778513 22.13840867 5.07523564 25.22542867 5.0625 28.3125 C5.05748286 30.40950416 5.05292032 32.50650946 5.04882812 34.60351562 C5.03782112 39.73570521 5.02056788 44.86784018 5 50 C4.67 50 4.34 50 4 50 C3.96241577 48.11510864 3.96241577 48.11510864 3.92407227 46.19213867 C3.82997705 41.53480643 3.72976141 36.87762259 3.62768555 32.22045898 C3.58434471 30.20389271 3.54266902 28.18728993 3.50268555 26.1706543 C3.44496253 23.27381383 3.38127378 20.37715694 3.31640625 17.48046875 C3.29133751 16.12564644 3.29133751 16.12564644 3.26576233 14.74345398 C3.24581711 13.90280899 3.22587189 13.062164 3.20532227 12.19604492 C3.18200584 11.08684944 3.18200584 11.08684944 3.15821838 9.95524597 C3.06087775 7.7848329 3.06087775 7.7848329 2 5 C1.67 6.65 1.34 8.3 1 10 C0.67 10 0.34 10 0 10 C0 6.7 0 3.4 0 0 Z " fill="#F6CDC1" transform="translate(89,70)"/>
<path d="M0 0 C1.32 0 2.64 0 4 0 C4 0.66 4 1.32 4 2 C4.99 1.67 5.98 1.34 7 1 C7.33 1.66 7.66 2.32 8 3 C8.61875 2.649375 9.2375 2.29875 9.875 1.9375 C10.57625 1.628125 11.2775 1.31875 12 1 C12.66 1.33 13.32 1.66 14 2 C14 2.99 14 3.98 14 5 C13.01 5 12.02 5 11 5 C10.67 5.66 10.34 6.32 10 7 C12.97 7.495 12.97 7.495 16 8 C15.814375 8.556875 15.62875 9.11375 15.4375 9.6875 C14.92448835 12.399133 15.3359276 14.34371039 16 17 C13.90611244 15.11550119 12.55994322 13.32616306 11 10.9375 C9.15461663 7.83181695 9.15461663 7.83181695 6 6 C6 5.34 6 4.68 6 4 C5.38125 3.71125 4.7625 3.4225 4.125 3.125 C2 2 2 2 0 0 Z " fill="#F46418" transform="translate(130,64)"/>
<path d="M0 0 C0.99 0 1.98 0 3 0 C4.11165232 4.4378561 4.11527763 8.76956386 4.0625 13.3125 C4.05798828 14.05306641 4.05347656 14.79363281 4.04882812 15.55664062 C4.03712175 17.37112899 4.01918898 19.18557534 4 21 C3.67 21 3.34 21 3 21 C2.67 18.36 2.34 15.72 2 13 C1.67 15.64 1.34 18.28 1 21 C-1.8202907 16.99561779 -1.00863471 12.87663461 -0.625 8.25 C-0.56828125 7.45722656 -0.5115625 6.66445312 -0.453125 5.84765625 C-0.31216305 3.89768265 -0.1574288 1.94871329 0 0 Z " fill="#F6F2E9" transform="translate(70,75)"/>
<path d="M0 0 C1.84271484 -0.02126953 1.84271484 -0.02126953 3.72265625 -0.04296875 C6.9375 0.1875 6.9375 0.1875 9.9375 2.1875 C-0.4575 2.6825 -0.4575 2.6825 -11.0625 3.1875 C-12.12022111 5.83180277 -13.16188293 8.48564878 -14.0625 11.1875 C-14.7225 11.1875 -15.3825 11.1875 -16.0625 11.1875 C-16.375 7.875 -16.375 7.875 -16.0625 4.1875 C-11.21937957 0.15156631 -6.10029581 0.03207306 0 0 Z " fill="#F5F2E7" transform="translate(115.0625,60.8125)"/>
<path d="M0 0 C0.66 0 1.32 0 2 0 C2.88370974 6.48708411 3.00278495 12.53919765 2.5625 19.0625 C2.51029297 19.92810547 2.45808594 20.79371094 2.40429688 21.68554688 C2.2763539 23.79079032 2.13916029 25.89546828 2 28 C-2.13325515 20.14370751 -1.49455661 9.69837811 -1 1 C-0.67 0.67 -0.34 0.34 0 0 Z " fill="#F7FAF1" transform="translate(61,79)"/>
<path d="M0 0 C2 2 2 2 2.22705078 4.43017578 C2.21657715 5.4251709 2.20610352 6.42016602 2.1953125 7.4453125 C2.18886719 8.52167969 2.18242188 9.59804687 2.17578125 10.70703125 C2.15902344 11.83496094 2.14226562 12.96289062 2.125 14.125 C2.11597656 15.26066406 2.10695313 16.39632812 2.09765625 17.56640625 C2.07403098 20.37781299 2.04109013 23.18880298 2 26 C1.67 26 1.34 26 1 26 C1 23.36 1 20.72 1 18 C0.34 18 -0.32 18 -1 18 C-1.02690844 15.37493198 -1.04679404 12.75013827 -1.0625 10.125 C-1.07087891 9.37863281 -1.07925781 8.63226563 -1.08789062 7.86328125 C-1.11328125 2.2265625 -1.11328125 2.2265625 0 0 Z " fill="#F9FDFB" transform="translate(91,94)"/>
<path d="M0 0 C1.98 0.66 3.96 1.32 6 2 C6 8.93 6 15.86 6 23 C5.34 22.34 4.68 21.68 4 21 C3.67 21.99 3.34 22.98 3 24 C2.34 24 1.68 24 1 24 C1.33 23.071875 1.66 22.14375 2 21.1875 C3.78634015 14.86462694 3.98120998 8.41214121 1.5 2.3125 C1.005 1.549375 0.51 0.78625 0 0 Z " fill="#F0571C" transform="translate(167,92)"/>
<path d="M0 0 C0.33 0 0.66 0 1 0 C1.02703562 2.58340384 1.04685611 5.16652308 1.0625 7.75 C1.07087891 8.47960937 1.07925781 9.20921875 1.08789062 9.9609375 C1.10391684 13.48670558 0.95292713 16.61034916 0 20 C-0.99 20 -1.98 20 -3 20 C-3.33 16.04 -3.66 12.08 -4 8 C-2.68 8 -1.36 8 0 8 C0 5.36 0 2.72 0 0 Z " fill="#F7F1E7" transform="translate(73,104)"/>
<path d="M0 0 C0.66 0.33 1.32 0.66 2 1 C0.99806563 4.79303725 0.18975773 7.71536341 -2 11 C-2 9.68 -2 8.36 -2 7 C-2.99 7.33 -3.98 7.66 -5 8 C-5.33 10.64 -5.66 13.28 -6 16 C-6.33 16 -6.66 16 -7 16 C-7.18451025 5.44191344 -7.18451025 5.44191344 -6 1 C-4.7934375 1.0309375 -4.7934375 1.0309375 -3.5625 1.0625 C-1.06645115 1.29633621 -1.06645115 1.29633621 0 0 Z " fill="#F4631A" transform="translate(66,72)"/>
<path d="M0 0 C0.8632601 3.71888866 1.11721556 7.14296488 1.09765625 10.95703125 C1.09443359 12.06884766 1.09121094 13.18066406 1.08789062 14.32617188 C1.07951172 15.47666016 1.07113281 16.62714844 1.0625 17.8125 C1.05798828 18.98232422 1.05347656 20.15214844 1.04882812 21.35742188 C1.0370693 24.23833358 1.02063426 27.11914044 1 30 C0.67 30 0.34 30 0 30 C-0.95468258 23.62542652 -1.1202324 17.43938347 -1.0625 11 C-1.05798828 10.03449219 -1.05347656 9.06898437 -1.04882812 8.07421875 C-1.03715417 5.71607911 -1.02078021 3.35807398 -1 1 C-1.66 1 -2.32 1 -3 1 C-3.33 2.65 -3.66 4.3 -4 6 C-4.33 5.34 -4.66 4.68 -5 4 C-5.99 4 -6.98 4 -8 4 C-8 3.34 -8 2.68 -8 2 C-3.61016949 -1.20338983 -3.61016949 -1.20338983 0 0 Z " fill="#F05722" transform="translate(39,90)"/>
<path d="M0 0 C1.8871875 0.2475 1.8871875 0.2475 3.8125 0.5 C8.47466316 1.04021891 13.02929617 1.00459577 17.71484375 0.83984375 C20 1 20 1 22 3 C14.74633886 5.41788705 6.10834385 4.64496515 -1 2 C-0.67 1.34 -0.34 0.68 0 0 Z " fill="#F95B03" transform="translate(106,56)"/>
<path d="M0 0 C2.02558881 3.34939881 2.21738987 5.86962551 2.125 9.75 C2.10695313 10.73484375 2.08890625 11.7196875 2.0703125 12.734375 C2.03550781 13.85585937 2.03550781 13.85585937 2 15 C1.34 15 0.68 15 0 15 C-0.33 17.64 -0.66 20.28 -1 23 C-1.33 23 -1.66 23 -2 23 C-2.0582253 19.91674642 -2.09367134 16.83363495 -2.125 13.75 C-2.14175781 12.87730469 -2.15851562 12.00460938 -2.17578125 11.10546875 C-2.18222656 10.26113281 -2.18867187 9.41679688 -2.1953125 8.546875 C-2.20578613 7.77182617 -2.21625977 6.99677734 -2.22705078 6.19824219 C-1.97326556 3.74116461 -1.22444152 2.12688458 0 0 Z " fill="#F15920" transform="translate(57,89)"/>
<path d="M0 0 C0 0.99 0 1.98 0 3 C0.99 3.33 1.98 3.66 3 4 C3.33 6.31 3.66 8.62 4 11 C3.67 10.01 3.34 9.02 3 8 C2.34 8 1.68 8 1 8 C1 7.34 1 6.68 1 6 C0.443125 5.896875 -0.11375 5.79375 -0.6875 5.6875 C-3.44176578 4.86866423 -5.58727657 3.54146219 -8 2 C-4.77208445 -0.1519437 -3.71599191 -0.20086443 0 0 Z " fill="#F75503" transform="translate(172,88)"/>
<path d="M0 0 C0.33 0 0.66 0 1 0 C0.67 11.22 0.34 22.44 0 34 C-0.33 34 -0.66 34 -1 34 C-1.19279158 29.80125838 -1.3714261 25.60222204 -1.53710938 21.40234375 C-1.59541735 19.97444624 -1.65755423 18.54669964 -1.72363281 17.11914062 C-1.81808538 15.06408166 -1.89863877 13.00886899 -1.9765625 10.953125 C-2.02893066 9.71723633 -2.08129883 8.48134766 -2.13525391 7.20800781 C-2.00570235 4.13525065 -1.63395097 2.554094 0 0 Z " fill="#ED7241" transform="translate(69,75)"/>
<path d="M0 0 C1.32 0 2.64 0 4 0 C6.37590142 3.70416126 6.20500286 6.92984573 6.125 11.25 C6.10695313 12.51328125 6.08890625 13.7765625 6.0703125 15.078125 C6.04710937 16.04234375 6.02390625 17.0065625 6 18 C5.67 18 5.34 18 5 18 C4.67 14.37 4.34 10.74 4 7 C3.67 7 3.34 7 3 7 C3 5.02 3 3.04 3 1 C2.34 1 1.68 1 1 1 C0.67 5.62 0.34 10.24 0 15 C-0.33 15 -0.66 15 -1 15 C-1.18451025 4.44191344 -1.18451025 4.44191344 0 0 Z " fill="#F4B397" transform="translate(30,94)"/>
<path d="M0 0 C3 1 3 1 4 3 C4.08543895 5.10528933 4.10714725 7.21331157 4.09765625 9.3203125 C4.09443359 10.57714844 4.09121094 11.83398438 4.08789062 13.12890625 C4.07951172 14.44761719 4.07113281 15.76632813 4.0625 17.125 C4.05748489 18.46484211 4.05292201 19.804686 4.04882812 21.14453125 C4.03701086 24.42973206 4.02053617 27.71484397 4 31 C3.67 31 3.34 31 3 31 C3 23.08 3 15.16 3 7 C2.34 7 1.68 7 1 7 C0.31292445 4.50935112 0 2.62113708 0 0 Z " fill="#EFC8AC" transform="translate(51,89)"/>
<path d="M0 0 C1.32 0.66 2.64 1.32 4 2 C4 2.99 4 3.98 4 5 C8.455 5.99 8.455 5.99 13 7 C9.32266781 7.91933305 7.40100462 7.99485581 3.75 7.5625 C2.85796875 7.46066406 1.9659375 7.35882813 1.046875 7.25390625 C0.37140625 7.17011719 -0.3040625 7.08632812 -1 7 C-0.67 4.69 -0.34 2.38 0 0 Z " fill="#F07336" transform="translate(147,79)"/>
<path d="M0 0 C0.99 0 1.98 0 3 0 C4.3271261 3.9813783 4.06915913 7.85045227 4 12 C3.67 12 3.34 12 3 12 C2.67 9.69 2.34 7.38 2 5 C1.67 7.31 1.34 9.62 1 12 C-1.69461986 7.95807022 -1.23200889 5.7948504 -1 1 C-0.67 0.67 -0.34 0.34 0 0 Z " fill="#F2DBC8" transform="translate(80,76)"/>
<path d="M0 0 C0.33 0 0.66 0 1 0 C1.33 3.96 1.66 7.92 2 12 C0.68 11.67 -0.64 11.34 -2 11 C-2.25 3.375 -2.25 3.375 0 0 Z " fill="#F8E5D7" transform="translate(91,112)"/>
<path d="M0 0 C0.33 0 0.66 0 1 0 C1.125 7.625 1.125 7.625 0 11 C-1.32 10.67 -2.64 10.34 -4 10 C-4 8.35 -4 6.7 -4 5 C-3.01 4.67 -2.02 4.34 -1 4 C-0.26676204 1.98491642 -0.26676204 1.98491642 0 0 Z " fill="#F4CAB5" transform="translate(44,112)"/>
<path d="M0 0 C0.66 0 1.32 0 2 0 C3.03590199 5.05002222 3.10251672 9.87416389 3 15 C2.67 15 2.34 15 2 15 C-0.10428384 9.87080814 -0.21755666 5.4389165 0 0 Z " fill="#F3FBFD" transform="translate(31,95)"/>
<path d="M0 0 C1.32 0.33 2.64 0.66 4 1 C4 2.98 4 4.96 4 7 C3.01 7.495 3.01 7.495 2 8 C2 7.01 2 6.02 2 5 C1.67 6.65 1.34 8.3 1 10 C0.67 10 0.34 10 0 10 C0 6.7 0 3.4 0 0 Z " fill="#F5D8CB" transform="translate(89,70)"/>
<path d="M0 0 C0.33 0 0.66 0 1 0 C1 4.29 1 8.58 1 13 C0.67 13 0.34 13 0 13 C-0.66 10.03 -1.32 7.06 -2 4 C-2.66 4 -3.32 4 -4 4 C-4 3.34 -4 2.68 -4 2 C-3.01 2 -2.02 2 -1 2 C-0.67 1.34 -0.34 0.68 0 0 Z " fill="#F56102" transform="translate(96,64)"/>
<path d="M0 0 C2.0625 0.4375 2.0625 0.4375 4 1 C3.525625 1.639375 3.05125 2.27875 2.5625 2.9375 C0.52968613 6.92181519 0.2789471 10.58494074 0 15 C-0.33 15 -0.66 15 -1 15 C-1.02685412 12.68756208 -1.04632841 10.3750373 -1.0625 8.0625 C-1.07410156 6.77472656 -1.08570312 5.48695312 -1.09765625 4.16015625 C-1 1 -1 1 0 0 Z " fill="#F95E03" transform="translate(67,73)"/>
<path d="M0 0 C0 2.66666667 0 5.33333333 0 8 C-2.31 7.67 -4.62 7.34 -7 7 C-4.66666667 4.66666667 -2.33333333 2.33333333 0 0 Z " fill="#EF5C25" transform="translate(167,116)"/>
<path d="M0 0 C0.33 0 0.66 0 1 0 C1 3.3 1 6.6 1 10 C-0.32 10 -1.64 10 -3 10 C-3.33 7.69 -3.66 5.38 -4 3 C-3.67 3.99 -3.34 4.98 -3 6 C-2.34 6 -1.68 6 -1 6 C-0.67 4.02 -0.34 2.04 0 0 Z " fill="#F0C4B3" transform="translate(83,114)"/>
<path d="M0 0 C0 2.31 0 4.62 0 7 C-1.32 7 -2.64 7 -4 7 C-4 5.02 -4 3.04 -4 1 C-1 0 -1 0 0 0 Z " fill="#F6DFD2" transform="translate(64,117)"/>
<path d="M0 0 C3.33727786 1.17255709 5.77437487 2.18868404 8 5 C8 5.66 8 6.32 8 7 C6.68 6.67 5.36 6.34 4 6 C4 5.34 4 4.68 4 4 C3.34 3.67 2.68 3.34 2 3 C1.67 3.66 1.34 4.32 1 5 C0.67 3.35 0.34 1.7 0 0 Z " fill="#F7E8D7" transform="translate(160,88)"/>
<path d="M0 0 C3.465 1.98 3.465 1.98 7 4 C7 4.66 7 5.32 7 6 C7.66 6.33 8.32 6.66 9 7 C7.35 7.33 5.7 7.66 4 8 C3.34 6.02 2.68 4.04 2 2 C1.34 2 0.68 2 0 2 C0 1.34 0 0.68 0 0 Z " fill="#F7EEDF" transform="translate(129,64)"/>
<path d="M0 0 C2.1519437 3.22791555 2.20086443 4.28400809 2 8 C2.66 8 3.32 8 4 8 C4 8.99 4 9.98 4 11 C3.01 11 2.02 11 1 11 C-0.28317892 7.15046324 -0.06643637 4.05261865 0 0 Z " fill="#FBEDE7" transform="translate(30,106)"/>
<path d="M0 0 C0.66 0.66 1.32 1.32 2 2 C-2.01804691 2.84098656 -5.01803543 3.05404945 -9 2 C-5.54754176 -0.30163882 -4.05261287 -0.34490322 0 0 Z " fill="#FC6706" transform="translate(126,57)"/>
<path d="M0 0 C0.66 0 1.32 0 2 0 C2.66 2.31 3.32 4.62 4 7 C2.35 6.67 0.7 6.34 -1 6 C-0.67 4.02 -0.34 2.04 0 0 Z " fill="#F84506" transform="translate(64,121)"/>
<path d="M0 0 C0.33 0 0.66 0 1 0 C1 2.64 1 5.28 1 8 C-1.475 7.01 -1.475 7.01 -4 6 C-3.67 4.68 -3.34 3.36 -3 2 C-3 2.99 -3 3.98 -3 5 C-2.01 5 -1.02 5 0 5 C0 3.35 0 1.7 0 0 Z " fill="#ED6D41" transform="translate(34,112)"/>
<path d="M0 0 C1.32 0 2.64 0 4 0 C4 0.66 4 1.32 4 2 C4.99 1.67 5.98 1.34 7 1 C7.33 2.65 7.66 4.3 8 6 C7.34 6 6.68 6 6 6 C6 5.34 6 4.68 6 4 C5.38125 3.71125 4.7625 3.4225 4.125 3.125 C2 2 2 2 0 0 Z " fill="#EE7633" transform="translate(130,64)"/>
<path d="M0 0 C-0.33 1.32 -0.66 2.64 -1 4 C-1.66 3.34 -2.32 2.68 -3 2 C-3.99 2.66 -4.98 3.32 -6 4 C-6.66 3.01 -7.32 2.02 -8 1 C-5.07175348 0.02391783 -3.04386724 -0.08226668 0 0 Z " fill="#F35A0D" transform="translate(172,88)"/>
</svg>
